<?xml version="1.0" encoding="UTF-8" standalone="no"?>
<!-- Created with Inkscape (http://www.inkscape.org/) -->

<svg
   version="1.1"
   id="svg83"
   width="176.61275"
   height="198.98486"
   viewBox="0 0 176.61275 198.98486"
   sodipodi:docname="boter_home_hero_vse_muce.svg"
   inkscape:version="1.1.2 (b8e25be833, 2022-02-05)"
   xmlns:inkscape="http://www.inkscape.org/namespaces/inkscape"
   xmlns:sodipodi="http://sodipodi.sourceforge.net/DTD/sodipodi-0.dtd"
   xmlns="http://www.w3.org/2000/svg"
   xmlns:svg="http://www.w3.org/2000/svg">
  <defs
     id="defs87">
    <filter
       inkscape:collect="always"
       style="color-interpolation-filters:sRGB"
       id="filter29634"
       x="-0.040666109"
       y="-0.034643909"
       width="1.0813322"
       height="1.0692878">
      <feGaussianBlur
         inkscape:collect="always"
         stdDeviation="0.034247244"
         id="feGaussianBlur29636" />
    </filter>
    <filter
       inkscape:collect="always"
       style="color-interpolation-filters:sRGB"
       id="filter19266"
       x="-0.0014813367"
       y="-0.0016368157"
       width="1.0029627"
       height="1.0032736">
      <feGaussianBlur
         inkscape:collect="always"
         stdDeviation="0.045171631"
         id="feGaussianBlur19268" />
    </filter>
  </defs>
  <sodipodi:namedview
     id="namedview85"
     pagecolor="#ffffff"
     bordercolor="#666666"
     borderopacity="1.0"
     inkscape:pageshadow="2"
     inkscape:pageopacity="0.0"
     inkscape:pagecheckerboard="0"
     showgrid="false"
     inkscape:zoom="4"
     inkscape:cx="54.625"
     inkscape:cy="105.25"
     inkscape:window-width="2560"
     inkscape:window-height="1377"
     inkscape:window-x="-8"
     inkscape:window-y="-8"
     inkscape:window-maximized="1"
     inkscape:current-layer="layer1"
     fit-margin-top="18"
     fit-margin-left="18"
     fit-margin-right="15"
     fit-margin-bottom="0" />
  <g
     inkscape:groupmode="layer"
     id="layer1"
     inkscape:label="vector"
     style="display:inline"
     transform="translate(-47.48896,2.5427552)">
    <path
       style="fill:#d76f44;fill-opacity:1;stroke:#000000;stroke-width:1.5;stroke-linecap:butt;stroke-linejoin:miter;stroke-miterlimit:4;stroke-dasharray:none;stroke-opacity:1"
       d="m 100.43364,195.68758 102.45176,-0.32341 c 0.0559,-0.0588 -16.74789,-32.43025 -51.24217,-29.53823 -34.2733,2.87349 -37.70425,10.34937 -51.20959,29.86164 z"
       id="path6944"
       sodipodi:nodetypes="ccsc" />
    <path
       style="fill:#ffffff;fill-opacity:1;stroke:#000000;stroke-width:1.5;stroke-linecap:butt;stroke-linejoin:miter;stroke-miterlimit:4;stroke-dasharray:none;stroke-opacity:1"
       d="m 125.39094,102.85683 c 0.82249,0.26639 -22.72196,1.08506 -23.31491,1.44959 -4.175792,5.71156 1.19712,17.84505 -0.0603,20.4972 -10.06349,36.95035 35.36668,50.06361 51.51363,48.4331 24.46251,-0.22379 57.76011,-20.54401 47.52819,-51.70731 -2.33545,-7.11307 -4.97624,-4.39702 -5.18722,-6.61632 -0.13074,-1.37516 0.0192,-18.725454 -3.12919,-19.43604 -9.58356,-4.450511 -21.75605,3.379944 -24.28974,2.997531 -14.90173,-4.18063 -29.52831,-2.920274 -43.06041,4.382249 z"
       id="path25427"
       sodipodi:nodetypes="ccccsscccc" />
    <g
       id="path29766">
      <path
         style="color:#000000;fill:#d76f44;stroke-width:1.1;stroke-linejoin:round;-inkscape-stroke:none"
         d="m 126.34706,102.68565 c -2.14685,9.59163 4.16534,16.77328 8.89059,23.2881 -5.33747,-10.71593 -2.69406,-15.64674 -1.21227,-26.842796"
         id="path1047" />
      <path
         style="color:#000000;fill:#000000;stroke-linejoin:round;-inkscape-stroke:none"
         d="m 133.48047,99.058594 c -0.73669,5.566266 -1.77266,9.598536 -1.95508,13.648436 -0.13536,3.0053 0.53808,6.19891 1.83203,9.76172 -1.69623,-2.3088 -3.37542,-4.67515 -4.65039,-7.23047 -1.86418,-3.73623 -2.86616,-7.7765 -1.82422,-12.43164 l -1.07226,-0.24023 c -1.10491,4.93648 -0.0244,9.28091 1.91211,13.16211 1.93651,3.88119 4.71963,7.32742 7.07031,10.56836 a 0.55005501,0.55005501 0 0 0 0.9375,-0.56836 c -2.63757,-5.29539 -3.28279,-9.07722 -3.10742,-12.97071 0.17537,-3.89349 1.20216,-7.9249 1.94726,-13.554685 z"
         id="path1049" />
    </g>
    <ellipse
       style="display:inline;fill:#a88b8a;fill-opacity:1;stroke:#000000;stroke-width:1.33205;stroke-linecap:round;stroke-linejoin:round;stroke-miterlimit:4;stroke-dasharray:none;stroke-opacity:1"
       id="path8646-3"
       cx="100.34431"
       cy="170.27647"
       rx="5.3069491"
       ry="2.6327472"
       transform="matrix(0.98992583,-0.14158691,0.3020537,0.95329091,0,0)" />
    <path
       style="fill:none;stroke:#000000;stroke-width:1.2;stroke-linecap:round;stroke-linejoin:miter;stroke-miterlimit:4;stroke-dasharray:none;stroke-opacity:1"
       d="m 150.98575,150.86624 c 3.49162,17.80203 28.25565,10.7074 24.29529,-2.68583"
       id="path23428"
       sodipodi:nodetypes="cc" />
    <path
       style="fill:none;stroke:#000000;stroke-width:1.2;stroke-linecap:round;stroke-linejoin:miter;stroke-miterlimit:4;stroke-dasharray:none;stroke-opacity:1"
       d="m 150.98575,150.86624 c 2.95827,16.59433 -19.85618,15.09546 -14.56752,1.16588"
       id="path23430"
       sodipodi:nodetypes="cc" />
    <g
       id="path31266">
      <path
         style="color:#000000;fill:#d76f44;stroke-width:1.1;stroke-linejoin:round;-inkscape-stroke:none"
         d="m 136.63697,98.285632 c -3.10006,9.462748 0.46017,12.328198 5.76175,21.561168 -4.00187,-9.974 -2.2848,-12.26972 1.36435,-22.911063 l 0.0388,-0.02124"
         id="path1053" />
      <path
         style="color:#000000;fill:#000000;stroke-linejoin:round;-inkscape-stroke:none"
         d="m 143.53711,96.431641 -0.0391,0.02148 a 0.55005501,0.55005501 0 0 0 -0.25586,0.304687 c -1.81993,5.307112 -3.17783,8.557882 -3.57617,11.816412 -0.25989,2.12596 0.11288,4.43012 0.82031,7.02734 -1.52344,-2.48597 -2.856,-4.68068 -3.60547,-6.64453 -1.12559,-2.9494 -1.24623,-5.84343 0.2793,-10.500003 l -1.04493,-0.341797 c -1.57453,4.80618 -1.46662,8.07518 -0.26171,11.23243 1.2049,3.15724 3.43181,6.18175 6.06835,10.77343 a 0.55005501,0.55005501 0 0 0 0.98633,-0.47851 c -1.98538,-4.94823 -2.5224,-7.89044 -2.15039,-10.9336 0.37202,-3.04316 1.69617,-6.26147 3.52539,-11.595703 l -0.22461,0.267578 z"
         id="path1055" />
    </g>
    <path
       style="fill:none;stroke:#000000;stroke-width:1.46682;stroke-linecap:round;stroke-linejoin:miter;stroke-miterlimit:4;stroke-dasharray:none;stroke-opacity:1"
       d="m 100.51984,131.85114 -7.424128,-1.4555"
       id="path28625" />
    <path
       style="fill:none;stroke:#000000;stroke-width:1.46022;stroke-linecap:round;stroke-linejoin:miter;stroke-miterlimit:4;stroke-dasharray:none;stroke-opacity:1"
       d="m 100.48769,134.13783 -6.632607,-0.20254"
       id="path28627" />
    <path
       style="fill:none;stroke:#000000;stroke-width:1.46376;stroke-linecap:round;stroke-linejoin:miter;stroke-miterlimit:4;stroke-dasharray:none;stroke-opacity:1"
       d="m 100.61498,137.06428 -5.823883,1.61267"
       id="path28629" />
    <path
       style="fill:none;stroke:#000000;stroke-width:1.43683;stroke-linecap:round;stroke-linejoin:miter;stroke-miterlimit:4;stroke-dasharray:none;stroke-opacity:1"
       d="m 201.32787,121.99608 6.20138,-2.75247"
       id="path28631" />
    <path
       style="fill:none;stroke:#000000;stroke-width:1.5;stroke-linecap:round;stroke-linejoin:miter;stroke-miterlimit:4;stroke-dasharray:none;stroke-opacity:1"
       d="m 201.93141,124.27597 6.4203,-1.68545"
       id="path28633" />
    <path
       style="fill:none;stroke:#000000;stroke-width:1.45257;stroke-linecap:round;stroke-linejoin:miter;stroke-miterlimit:4;stroke-dasharray:none;stroke-opacity:1"
       d="m 202.78919,127.54093 5.44585,-0.0901"
       id="path28635" />
    <path
       id="path28796"
       style="color:#000000;fill:#000000;stroke-linecap:round;stroke-linejoin:round;-inkscape-stroke:none"
       d="m 141.42969,131.41797 c -2.29216,0 -4.37993,0.68361 -5.92188,1.82812 -1.54194,1.14452 -2.55078,2.78394 -2.55078,4.61914 0,1.83521 1.00884,3.47464 2.55078,4.61915 1.54195,1.14451 3.62972,1.83007 5.92188,1.83007 2.29216,0 4.37797,-0.68555 5.91992,-1.83007 1.54195,-1.14451 2.55078,-2.78394 2.55078,-4.61915 0,-1.8352 -1.00883,-3.47462 -2.55078,-4.61914 -1.54195,-1.14451 -3.62776,-1.82812 -5.91992,-1.82812 z m 0,1.24414 c 2.04265,0 3.87895,0.61996 5.17773,1.58398 1.29878,0.96403 2.04883,2.23682 2.04883,3.61914 0,1.38233 -0.75005,2.65707 -2.04883,3.6211 -1.29878,0.96403 -3.13508,1.58398 -5.17773,1.58398 -2.04265,0 -3.88091,-0.61995 -5.17969,-1.58398 -1.29878,-0.96403 -2.04883,-2.23877 -2.04883,-3.6211 0,-1.38232 0.75005,-2.65511 2.04883,-3.61914 1.29878,-0.96402 3.13704,-1.58398 5.17969,-1.58398 z m 4.73437,3.71875 a 0.75783588,0.79097495 20.577415 0 0 -0.11914,0.006 0.75783588,0.79097495 20.577415 0 0 -0.6875,0.87695 l 0.0684,0.74805 a 0.75783588,0.79097495 20.577415 0 0 0.83008,0.68359 0.75783588,0.79097495 20.577415 0 0 0.6875,-0.875 l -0.0684,-0.74804 a 0.75783588,0.79097495 20.577415 0 0 -0.27344,-0.52344 0.75783588,0.79097495 20.577415 0 0 -0.4375,-0.16797 z" />
    <g
       id="path28958">
      <path
         style="color:#000000;fill:#d76f44;stroke-width:1.24306;stroke-linecap:round;stroke-linejoin:round;-inkscape-stroke:none"
         d="m 176.6662,131.75841 a 13.217163,10.655339 0 0 1 -13.21716,10.65534 13.217163,10.655339 0 0 1 -13.21717,-10.65534 13.217163,10.655339 0 0 1 13.21717,-10.65534 13.217163,10.655339 0 0 1 13.21716,10.65534 z"
         id="path1021" />
      <path
         style="color:#000000;fill:#000000;stroke-linecap:round;stroke-linejoin:round;-inkscape-stroke:none"
         d="m 163.44922,120.48242 c -7.57043,0 -13.83985,4.97396 -13.83985,11.27539 0,6.30144 6.26942,11.27735 13.83985,11.27735 7.57042,0 13.83789,-4.97591 13.83789,-11.27735 0,-6.30143 -6.26747,-11.27539 -13.83789,-11.27539 z m 0,1.24219 c 7.02884,0 12.5957,4.56509 12.5957,10.0332 0,5.46812 -5.56686,10.03516 -12.5957,10.03516 -7.02884,0 -12.5957,-4.56704 -12.5957,-10.03516 0,-5.46811 5.56686,-10.0332 12.5957,-10.0332 z"
         id="path1018" />
    </g>
    <path
       style="color:#000000;fill:#000000;stroke-linecap:round;-inkscape-stroke:none;filter:url(#filter29634)"
       d="m 154.87305,134.10156 a 0.83112001,0.83112001 0 0 0 -0.63282,0.0469 0.83112001,0.83112001 0 0 0 -0.36914,1.11718 l 0.35938,0.71094 a 0.83112001,0.83112001 0 0 0 1.11523,0.36719 0.83112001,0.83112001 0 0 0 0.36914,-1.11523 l -0.35937,-0.71094 a 0.83112001,0.83112001 0 0 0 -0.48242,-0.41602 z"
       id="path1024" />
    <path
       style="fill:none;stroke:#000000;stroke-width:1px;stroke-linecap:butt;stroke-linejoin:miter;stroke-opacity:1"
       d="m 126.34706,102.68565 7.67832,-3.554696 9.73769,-2.195217 v 0 0"
       id="path1225" />
    <path
       style="fill:#ffffff;fill-opacity:1;stroke:#000000;stroke-width:1.3;stroke-linecap:butt;stroke-linejoin:miter;stroke-miterlimit:4;stroke-dasharray:none;stroke-opacity:1"
       d="m 113.9269,178.56942 74.66318,0.003 c 0.10821,-0.14916 9.19942,8.35796 8.38214,8.42498 -1.11615,0.0915 -89.8907,0.30052 -89.88198,-0.31827 0.008,-0.5587 6.18769,-8.10384 6.83666,-8.10971 z"
       id="path7524"
       sodipodi:nodetypes="ccsscc" />
    <path
       style="fill:#d76f44;fill-opacity:1;stroke:none;stroke-width:1px;stroke-linecap:butt;stroke-linejoin:miter;stroke-opacity:1;filter:url(#filter19266)"
       d="m 131.61519,93.11523 c 0,0 -7.07107,-8.838834 -4.28684,-15.379572 0,0 24.13002,-1.281631 23.95325,-24.262602 C 151.10482,30.492086 136.2115,28.163647 113.58397,26.956552 90.753544,25.738633 79.271287,39.578086 78.140238,55.771153 77.049327,71.38957 96.96696,82.287658 116.76595,82.287658 c 0,0 3.0052,8.838835 14.84924,10.827572 z"
       id="path16173"
       sodipodi:nodetypes="ccssscc"
       transform="matrix(1.170295,0,0,1.170295,-25.781134,-15.875524)" />
    <text
       xml:space="preserve"
       style="font-size:9.33333px;line-height:1.25;font-family:Inter;-inkscape-font-specification:Inter;text-align:center;text-anchor:middle;fill:#ffffff"
       x="109.08344"
       y="37.25"
       id="text3250"><tspan
         sodipodi:role="line"
         id="tspan3248"
         x="109.08344"
         y="37.25"
         style="font-size:9.33333px;text-align:center;text-anchor:middle;fill:#ffffff">Oglej si</tspan><tspan
         sodipodi:role="line"
         x="109.08344"
         y="48.916664"
         id="tspan3384"
         style="font-style:normal;font-variant:normal;font-weight:bold;font-stretch:normal;font-size:9.33333px;font-family:Inter;-inkscape-font-specification:'Inter Bold';text-align:center;text-anchor:middle;fill:#ffffff">vse muce,</tspan><tspan
         sodipodi:role="line"
         x="109.08344"
         y="60.583324"
         id="tspan3386"
         style="font-size:9.33333px;text-align:center;text-anchor:middle;fill:#ffffff">ki iščejo botra</tspan></text>
  </g>
</svg>
